HIERARCHY
ROOT Hips
{
	OFFSET 0.000000 0.000000 0.000000 
	CHANNELS 6 Xposition Yposition Zposition Yrotation Zrotation Xrotation 
	JOINT Lumbar
	{
		OFFSET 0.000000 0.000000 0.000000 
		CHANNELS 3 Zrotation Xrotation Yrotation
		JOINT Neck
		{
			OFFSET 0.000000 0.445665 0.000000 
			CHANNELS 3 Zrotation Xrotation Yrotation
			End Site
			{
				OFFSET 0.000000 0.227535 0.000000 
			}
		}
		JOINT RightShoulder
		{
			OFFSET 0.019635 0.377685 0.194865 
			CHANNELS 3 Zrotation Xrotation Yrotation
			JOINT RightElbow
			{
				OFFSET 0.000000 -0.243375 0.000000 
				CHANNELS 2 Zrotation Yrotation
				JOINT RightWrist
				{
					OFFSET 0.000000 -0.264825 0.000000 
					CHANNELS 2 Zrotation Xrotation
					End Site
					{
						OFFSET 0.006600 -0.176220 0.000990 
					}
				}
			}
		}
		JOINT LeftShoulder
		{
			OFFSET 0.019635 0.377685 -0.194865 
			CHANNELS 3 Zrotation Xrotation Yrotation
			JOINT LeftElbow
			{
				OFFSET 0.000000 -0.243375 0.000000 
				CHANNELS 2 Zrotation Yrotation
				JOINT LeftWrist
				{
					OFFSET 0.000000 -0.264825 0.000000 
					CHANNELS 2 Zrotation Xrotation
					End Site
					{
						OFFSET 0.006600 -0.176220 -0.000990 
					}
				}
			}
		}
	}
	JOINT RightHip
	{
		OFFSET 0.052140 -0.069960 0.075570 
		CHANNELS 3 Zrotation Xrotation Yrotation
		JOINT RightKnee
		{
			OFFSET 0.000000 -0.402270 0.000000 
			CHANNELS 1 Zrotation
			JOINT RightAnkle
			{
				OFFSET 0.000000 -0.404085 0.000000 
				CHANNELS 3 Zrotation Xrotation Yrotation
				End Site
				{
					OFFSET 0.204105 -0.089430 0.008415 
				}
			}
		}
	}
	JOINT LeftHip
	{
		OFFSET 0.052140 -0.069960 -0.075570 
		CHANNELS 3 Zrotation Xrotation Yrotation
		JOINT LeftKnee
		{
			OFFSET 0.000000 -0.402270 0.000000 
			CHANNELS 1 Zrotation
			JOINT LeftAnkle
			{
				OFFSET 0.000000 -0.404085 0.000000 
				CHANNELS 3 Zrotation Xrotation Yrotation
				End Site
				{
					OFFSET 0.204105 -0.089430 -0.008415 
				}
			}
		}
	}
}
MOTION
Frames: 11
Frame Time: 0.02
1.11841 0.67255 0.04435 541.37669 0 1.84372 4.62291 -4.85038 4.06899 -1.72174 -2.93946 1.80538 7.31686 -6.1653 25.72284 135.89982 163.80861 -36.58737 -22.97559 31.98348 0.68958 -23.19061 7.65348 -86.22729 -11.15929 6.95117 91.7435 4.89127 -5.12921 -116.73301 -6.4309 -0.48766 10.36206 71.41873 8.23452 -0.3733 -65.38912 -15.39109 2.13092 -2.36969
1.11707 0.67337 0.04473 541.54065 0 1.70762 4.54986 -4.76846 4.05052 -1.86746 -2.9926 1.77539 7.39262 -6.00654 25.58872 135.84893 163.80861 -36.83601 -22.97559 31.80251 0.76332 -23.28653 7.65656 -87.96101 -11.75776 7.00779 90.97961 4.91625 -5.36642 -117.43456 -5.5964 -0.35518 10.16284 71.09089 8.36609 -0.48659 -64.13223 -15.68851 2.12698 -2.66678
1.11546 0.67439 0.0451 541.69517 0 1.57076 4.46455 -4.69412 4.04903 -2.00924 -3.08192 1.75348 7.47613 -5.82239 25.45121 135.80392 163.80861 -37.10762 -22.9756 31.55632 0.85771 -23.52123 7.67473 -90.15538 -12.47222 7.03309 90.10094 5.00155 -5.47434 -118.12298 -4.44985 -0.20135 9.74171 70.67088 8.51556 -0.52923 -62.85014 -15.94835 2.13884 -2.89962
1.11395 0.67531 0.04549 541.85299 0 1.43124 4.38371 -4.61422 4.03717 -2.1444 -3.13476 1.7276 7.55301 -5.66169 25.31289 135.76076 163.80862 -37.36365 -22.9756 31.32865 0.92846 -23.67828 7.68368 -92.09941 -13.1166 7.07428 89.27659 5.06158 -5.63317 -118.81291 -3.44984 -0.0532 9.44531 70.287 8.65748 -0.60145 -61.59133 -16.21727 2.14386 -3.15381
1.11251 0.67626 0.04583 542.01706 0 1.30217 4.30792 -4.5411 4.03591 -2.31922 -3.27507 1.70206 7.64732 -5.44825 25.18247 135.69645 163.80862 -37.6435 -22.9756 31.14864 1.05989 -23.89929 7.70199 -94.22624 -13.83798 7.11039 88.43127 5.11236 -5.82243 -119.51985 -2.4225 0.08009 9.05144 69.92603 8.79463 -0.69136 -60.2795 -16.51955 2.14716 -3.44477
1.11087 0.6772 0.04626 542.16463 0 1.15248 4.2182 -4.45648 4.01629 -2.40851 -3.24055 1.67826 7.70527 -5.33971 25.03607 135.67812 163.80863 -37.87945 -22.9756 30.85408 1.06959 -24.01509 7.70466 -96.07321 -14.42372 7.14923 87.60974 5.1958 -5.91843 -120.18788 -1.38575 0.24721 8.80591 69.49565 8.9466 -0.724 -59.07399 -16.73815 2.15747 -3.64352
1.10871 0.67814 0.04692 542.27433 0 0.94011 4.09687 -4.33862 3.94876 -2.26715 -2.71612 1.65492 7.6633 -5.52541 24.84022 135.78858 163.80862 -37.97551 -22.9756 30.25325 0.73877 -23.85793 7.66041 -97.0962 -14.62481 7.19919 86.84693 5.36708 -5.79167 -120.7652 -0.33705 0.51968 9.03205 68.90164 9.1385 -0.62758 -58.16118 -16.8047 2.18869 -3.5903
1.10637 0.67908 0.04767 542.36658 0 0.70831 3.961 -4.2093 3.86121 -2.03826 -2.01398 1.63349 7.58299 -5.81806 24.62976 135.94489 163.80862 -38.02863 -22.9756 29.54045 0.28468 -23.58203 7.60017 -97.81161 -14.68249 7.25326 86.11953 5.56703 -5.57574 -121.30205 0.69925 0.82229 9.41277 68.24122 9.34451 -0.47316 -57.35876 -16.77839 2.22561 -3.4482
1.10413 0.67999 0.0484 542.46298 0 0.48955 3.82955 -4.0852 3.77824 -1.84617 -1.39144 1.61295 7.51871 -6.06332 24.43021 136.07831 163.80861 -38.10941 -22.97559 28.88246 -0.11364 -23.32551 7.54716 -98.62428 -14.79255 7.30801 85.40048 5.74584 -5.39852 -121.84858 1.69918 1.09963 9.71795 67.60654 9.54212 -0.33636 -56.50962 -16.74705 2.25632 -3.35472
1.10179 0.68099 0.04904 542.57481 0 0.25308 3.70783 -3.96084 3.71427 -1.66743 -0.77433 1.58563 7.46259 -6.30309 24.21248 136.22027 163.8086 -38.15641 -22.97559 28.20515 -0.5107 -23.21483 7.49416 -99.62417 -14.95744 7.3516 84.57515 5.96083 -5.22281 -122.43 2.88428 1.42612 10.04002 66.98311 9.7484 -0.23304 -55.64137 -16.90488 2.30242 -3.22455
1.09962 0.68182 0.0499 542.65078 0 0.04877 3.56141 -3.83472 3.60659 -1.4391 -0.10422 1.57233 7.37784 -6.57934 24.0292 136.35562 163.8086 -38.26357 -22.97559 27.54296 -0.93926 -22.77659 7.43797 -100.16566 -14.97662 7.41897 83.97978 6.10665 -5.02644 -122.93103 3.68058 1.65772 10.36367 66.32702 9.94013 -0.04844 -54.84405 -16.6582 2.31812 -3.15025
